<svg xmlns="http://www.w3.org/2000/svg" width="64.93" height="64.929" viewBox="0 0 64.93 64.929">
  <path id="Icon_awesome-check-circle" data-name="Icon awesome-check-circle" d="M65.492,33.027A32.465,32.465,0,1,1,33.027.563,32.465,32.465,0,0,1,65.492,33.027Zm-36.22,17.19L53.359,26.13a2.1,2.1,0,0,0,0-2.962L50.4,20.206a2.094,2.094,0,0,0-2.962,0L27.791,39.85,18.62,30.679a2.1,2.1,0,0,0-2.962,0L12.7,33.641a2.1,2.1,0,0,0,0,2.962L26.31,50.217a2.1,2.1,0,0,0,2.962,0Z" transform="translate(-0.563 -0.563)" fill="#14a800"/>
</svg>
